<?xml version="1.0" encoding="UTF-8"?>
<!DOCTYPE svg PUBLIC "-//W3C//DTD SVG 1.1//EN" "http://www.w3.org/Graphics/SVG/1.1/DTD/svg11.dtd">
<svg xmlns="http://www.w3.org/2000/svg" version="1.1" width="512px" height="512px" style="shape-rendering:geometricPrecision; text-rendering:geometricPrecision; image-rendering:optimizeQuality; fill-rule:evenodd; clip-rule:evenodd" xmlns:xlink="http://www.w3.org/1999/xlink">
<g><path style="opacity:0.997" fill="#fec431" d="M 232.5,-0.5 C 247.833,-0.5 263.167,-0.5 278.5,-0.5C 380.566,12.7752 452.399,66.4419 494,160.5C 501.514,179.557 506.681,199.223 509.5,219.5C 506.223,219.216 503.057,219.549 500,220.5C 490.333,236.5 480.667,252.5 471,268.5C 469.001,252.18 467.168,235.846 465.5,219.5C 460.5,219.5 455.5,219.5 450.5,219.5C 453.332,242.493 455.832,265.493 458,288.5C 455.888,292.278 453.388,295.778 450.5,299C 446.458,300.457 442.458,300.957 438.5,300.5C 436.246,304.007 434.246,307.673 432.5,311.5C 433.025,312.192 433.692,312.692 434.5,313C 444.425,315.358 453.092,313.191 460.5,306.5C 463.817,303.194 466.651,299.528 469,295.5C 482.359,273.43 496.192,251.763 510.5,230.5C 510.328,231.492 510.662,232.158 511.5,232.5C 511.5,247.833 511.5,263.167 511.5,278.5C 498.225,380.566 444.558,452.399 350.5,494C 327.127,502.969 303.127,508.802 278.5,511.5C 263.167,511.5 247.833,511.5 232.5,511.5C 130.434,498.225 58.6008,444.558 17,350.5C 8.0309,327.127 2.19757,303.127 -0.5,278.5C -0.5,263.167 -0.5,247.833 -0.5,232.5C 12.7752,130.434 66.4419,58.6008 160.5,17C 183.873,8.0309 207.873,2.19757 232.5,-0.5 Z"/></g>
<g><path style="opacity:1" fill="#e44c47" d="M 94.5,211.5 C 80.1267,210.851 66.1267,211.518 52.5,213.5C 50.5557,221.318 48.5557,229.151 46.5,237C 58.8288,237.5 71.1622,237.667 83.5,237.5C 82.9745,241.936 81.9745,246.269 80.5,250.5C 67.8508,251.499 55.1842,251.832 42.5,251.5C 39.7066,263.881 36.7066,276.214 33.5,288.5C 28.6367,288.819 23.97,288.486 19.5,287.5C 26.1892,257.743 33.3558,228.076 41,198.5C 59.757,197.507 78.5903,197.174 97.5,197.5C 96.9152,202.255 95.9152,206.921 94.5,211.5 Z"/></g>
<g><path style="opacity:1" fill="#e44a47" d="M 292.5,198.5 C 292.167,220.843 292.5,243.177 293.5,265.5C 294.107,265.376 294.44,265.043 294.5,264.5C 305.407,242.188 316.74,220.021 328.5,198C 333.751,197.196 338.918,197.363 344,198.5C 344.333,220.833 344.667,243.167 345,265.5C 356.078,243.011 367.411,220.678 379,198.5C 384.114,197.196 389.281,197.196 394.5,198.5C 378.833,228.5 363.167,258.5 347.5,288.5C 342.208,289.495 336.875,289.828 331.5,289.5C 331.158,267.498 330.658,245.498 330,223.5C 318.427,244.978 307.093,266.644 296,288.5C 290.667,289.833 285.333,289.833 280,288.5C 279.176,258.491 278.509,228.491 278,198.5C 282.933,197.176 287.766,197.176 292.5,198.5 Z"/></g>
<g><path style="opacity:1" fill="#f9ac35" d="M 94.5,211.5 C 80.5982,212.183 66.5982,212.849 52.5,213.5C 66.1267,211.518 80.1267,210.851 94.5,211.5 Z"/></g>
<g><path style="opacity:1" fill="#e44b47" d="M 98.5,288.5 C 93.706,289.097 89.3727,288.43 85.5,286.5C 91.2352,264.288 96.5685,241.954 101.5,219.5C 106.167,219.5 110.833,219.5 115.5,219.5C 115.34,221.199 115.506,222.866 116,224.5C 122.721,219.869 130.221,218.202 138.5,219.5C 138.138,223.978 137.138,228.312 135.5,232.5C 125.976,231.379 118.142,234.379 112,241.5C 107.013,257.127 102.513,272.793 98.5,288.5 Z"/></g>
<g><path style="opacity:1" fill="#e44a47" d="M 164.5,219.5 C 170.909,219.183 177.243,219.683 183.5,221C 189.667,223.167 193.833,227.333 196,233.5C 196.745,242.244 196.245,250.911 194.5,259.5C 178.5,259.5 162.5,259.5 146.5,259.5C 146.35,275.819 154.017,280.985 169.5,275C 172.701,272.457 175.867,269.957 179,267.5C 182.863,268.732 186.696,270.066 190.5,271.5C 179.957,287.602 165.29,293.436 146.5,289C 136.466,284.451 131.466,276.618 131.5,265.5C 133.246,243.282 144.246,227.949 164.5,219.5 Z"/></g>
<g><path style="opacity:1" fill="#e44a47" d="M 234.5,219.5 C 240.909,219.183 247.243,219.683 253.5,221C 260.097,223.263 264.264,227.763 266,234.5C 266.717,242.91 266.217,251.244 264.5,259.5C 248.5,259.5 232.5,259.5 216.5,259.5C 216.167,276.021 223.834,281.187 239.5,275C 242.701,272.457 245.867,269.957 249,267.5C 252.863,268.732 256.696,270.066 260.5,271.5C 249.957,287.602 235.29,293.436 216.5,289C 206.053,284.289 201.053,276.122 201.5,264.5C 203.553,242.654 214.553,227.654 234.5,219.5 Z"/></g>
<g><path style="opacity:1" fill="#e44a47" d="M 426.5,288.5 C 421.706,289.097 417.373,288.43 413.5,286.5C 413.631,285.624 413.298,284.957 412.5,284.5C 402.307,291.374 391.64,292.207 380.5,287C 373.488,278.871 372.654,270.038 378,260.5C 384.187,253.322 392.02,249.155 401.5,248C 408.267,247.65 414.933,246.65 421.5,245C 424.857,242.017 425.357,238.517 423,234.5C 417.284,232.015 411.451,231.849 405.5,234C 402.283,236.726 398.95,239.226 395.5,241.5C 391.31,240.779 387.643,239.113 384.5,236.5C 396.969,219.736 412.969,215.236 432.5,223C 436.969,226.605 438.969,231.272 438.5,237C 435.054,254.285 431.054,271.452 426.5,288.5 Z"/></g>
<g><path style="opacity:0.999" fill="#e44a47" d="M 509.5,219.5 C 510.167,219.5 510.833,219.5 511.5,219.5C 511.5,222.833 511.5,226.167 511.5,229.5C 510.833,229.5 510.5,229.833 510.5,230.5C 496.192,251.763 482.359,273.43 469,295.5C 466.651,299.528 463.817,303.194 460.5,306.5C 453.092,313.191 444.425,315.358 434.5,313C 433.692,312.692 433.025,312.192 432.5,311.5C 434.246,307.673 436.246,304.007 438.5,300.5C 442.458,300.957 446.458,300.457 450.5,299C 453.388,295.778 455.888,292.278 458,288.5C 455.832,265.493 453.332,242.493 450.5,219.5C 455.5,219.5 460.5,219.5 465.5,219.5C 467.168,235.846 469.001,252.18 471,268.5C 480.667,252.5 490.333,236.5 500,220.5C 503.057,219.549 506.223,219.216 509.5,219.5 Z"/></g>
<g><path style="opacity:1" fill="#eb6a41" d="M 292.5,198.5 C 293.167,220.5 293.833,242.5 294.5,264.5C 294.44,265.043 294.107,265.376 293.5,265.5C 292.5,243.177 292.167,220.843 292.5,198.5 Z"/></g>
<g><path style="opacity:1" fill="#fec231" d="M 182.5,246.5 C 171.986,246.828 161.653,246.494 151.5,245.5C 157.822,233.209 167.322,229.876 180,235.5C 182.078,238.87 182.911,242.537 182.5,246.5 Z"/></g>
<g><path style="opacity:1" fill="#fec331" d="M 251.5,239.5 C 251.5,241.833 251.5,244.167 251.5,246.5C 241.319,246.827 231.319,246.494 221.5,245.5C 227.77,232.948 237.27,229.614 250,235.5C 250.791,236.745 251.291,238.078 251.5,239.5 Z"/></g>
<g><path style="opacity:1" fill="#f7a536" d="M 151.5,245.5 C 161.653,246.494 171.986,246.828 182.5,246.5C 171.993,247.823 161.326,247.823 150.5,246.5C 150.624,245.893 150.957,245.56 151.5,245.5 Z"/></g>
<g><path style="opacity:1" fill="#f8a536" d="M 251.5,239.5 C 252.473,241.948 252.806,244.615 252.5,247.5C 241.813,247.832 231.146,247.499 220.5,246.5C 220.624,245.893 220.957,245.56 221.5,245.5C 231.319,246.494 241.319,246.827 251.5,246.5C 251.5,244.167 251.5,241.833 251.5,239.5 Z"/></g>
<g><path style="opacity:1" fill="#fec231" d="M 410.5,258.5 C 413.572,258.183 416.572,258.516 419.5,259.5C 414.791,275.104 404.957,280.104 390,274.5C 388.346,268.307 390.513,264.14 396.5,262C 401.224,260.506 405.891,259.339 410.5,258.5 Z"/></g>
<g><path style="opacity:1" fill="#ed753f" d="M 19.5,287.5 C 23.97,288.486 28.6367,288.819 33.5,288.5C 28.6523,289.814 23.6523,289.814 18.5,288.5C 18.6236,287.893 18.9569,287.56 19.5,287.5 Z"/></g>
<g><path style="opacity:1" fill="#ee763f" d="M 85.5,286.5 C 89.3727,288.43 93.706,289.097 98.5,288.5C 94.03,289.486 89.3633,289.819 84.5,289.5C 84.2627,288.209 84.596,287.209 85.5,286.5 Z"/></g>
<g><path style="opacity:1" fill="#ed7140" d="M 413.5,286.5 C 417.373,288.43 421.706,289.097 426.5,288.5C 422.03,289.486 417.363,289.819 412.5,289.5C 412.263,288.209 412.596,287.209 413.5,286.5 Z"/></g>
</svg>
